<svg width="33" height="32" viewBox="0 0 33 32" fill="none" xmlns="http://www.w3.org/2000/svg">
<circle cx="16.3848" cy="16" r="16" fill="white"/>
<path d="M21.0511 18.6655C20.5521 18.668 20.0601 18.7825 19.6112 19.0006C19.1624 19.2187 18.7682 19.5348 18.4578 19.9255L13.5845 16.8788C13.7621 16.3056 13.7621 15.6921 13.5845 15.1188L18.4578 12.0722C18.9524 12.6846 19.6479 13.1023 20.421 13.2511C21.194 13.3999 21.9948 13.2703 22.6815 12.8853C23.3682 12.5002 23.8964 11.8845 24.1726 11.1473C24.4487 10.41 24.4551 9.59885 24.1905 8.85739C23.9258 8.11593 23.4073 7.49207 22.7267 7.09632C22.0462 6.70057 21.2475 6.55847 20.4722 6.69519C19.6969 6.83192 18.995 7.23864 18.4909 7.84331C17.9867 8.44799 17.7129 9.21158 17.7178 9.99883C17.721 10.297 17.7658 10.5932 17.8511 10.8788L12.9778 13.9255C12.5476 13.3839 11.9595 12.9895 11.2951 12.7971C10.6307 12.6047 9.92292 12.6237 9.26982 12.8515C8.61672 13.0793 8.05067 13.5047 7.65014 14.0686C7.2496 14.6326 7.03442 15.3071 7.03442 15.9988C7.03442 16.6905 7.2496 17.3651 7.65014 17.929C8.05067 18.493 8.61672 18.9183 9.26982 19.1462C9.92292 19.374 10.6307 19.393 11.2951 19.2006C11.9595 19.0081 12.5476 18.6138 12.9778 18.0722L17.8511 21.1188C17.7658 21.4045 17.721 21.7007 17.7178 21.9988C17.7178 22.6581 17.9133 23.3026 18.2796 23.8507C18.6459 24.3989 19.1664 24.8261 19.7755 25.0784C20.3846 25.3307 21.0548 25.3967 21.7014 25.2681C22.3481 25.1395 22.942 24.822 23.4082 24.3559C23.8743 23.8897 24.1918 23.2957 24.3204 22.6491C24.4491 22.0025 24.383 21.3323 24.1307 20.7232C23.8785 20.1141 23.4512 19.5935 22.903 19.2273C22.3549 18.861 21.7104 18.6655 21.0511 18.6655ZM21.0511 7.99883C21.4467 7.99883 21.8334 8.11613 22.1623 8.3359C22.4912 8.55566 22.7475 8.86802 22.8989 9.23347C23.0503 9.59892 23.0899 10.0011 23.0127 10.389C22.9355 10.777 22.7451 11.1333 22.4654 11.413C22.1857 11.6928 21.8293 11.8832 21.4413 11.9604C21.0534 12.0376 20.6512 11.998 20.2858 11.8466C19.9203 11.6952 19.608 11.4389 19.3882 11.11C19.1684 10.7811 19.0511 10.3944 19.0511 9.99883C19.0511 9.4684 19.2619 8.95969 19.6369 8.58462C20.012 8.20955 20.5207 7.99883 21.0511 7.99883ZM10.3845 17.9988C9.98892 17.9988 9.60224 17.8815 9.27334 17.6618C8.94444 17.442 8.6881 17.1297 8.53672 16.7642C8.38535 16.3987 8.34574 15.9966 8.42291 15.6087C8.50008 15.2207 8.69056 14.8643 8.97027 14.5846C9.24997 14.3049 9.60634 14.1144 9.9943 14.0373C10.3823 13.9601 10.7844 13.9997 11.1498 14.1511C11.5153 14.3025 11.8277 14.5588 12.0474 14.8877C12.2672 15.2166 12.3845 15.6033 12.3845 15.9988C12.3845 16.5293 12.1738 17.038 11.7987 17.413C11.4236 17.7881 10.9149 17.9988 10.3845 17.9988ZM21.0511 23.9988C20.6556 23.9988 20.2689 23.8815 19.94 23.6618C19.6111 23.442 19.3548 23.1297 19.2034 22.7642C19.052 22.3988 19.0124 21.9966 19.0896 21.6087C19.1667 21.2207 19.3572 20.8643 19.6369 20.5846C19.9166 20.3049 20.273 20.1144 20.661 20.0373C21.0489 19.9601 21.4511 19.9997 21.8165 20.1511C22.182 20.3025 22.4943 20.5588 22.7141 20.8877C22.9339 21.2166 23.0511 21.6033 23.0511 21.9988C23.0511 22.5293 22.8404 23.038 22.4654 23.413C22.0903 23.7881 21.5816 23.9988 21.0511 23.9988Z" fill="black"/>
</svg>
